<svg xmlns="http://www.w3.org/2000/svg" xmlns:xlink="http://www.w3.org/1999/xlink" width="500" zoomAndPan="magnify" viewBox="0 0 375 213.75" height="285" preserveAspectRatio="xMidYMid meet" version="1.0"><defs><g/><clipPath id="4e645dafd2"><path d="M 5 0 L 374.78125 0 L 374.78125 213.5 L 5 213.5 Z M 5 0 " clip-rule="nonzero"/></clipPath><clipPath id="87e3bdc374"><path d="M 176 49 L 304 49 L 304 125 L 176 125 Z M 176 49 " clip-rule="nonzero"/></clipPath><clipPath id="0a1b309a18"><path d="M 301.445312 104.582031 C 299.550781 101.789062 296.78125 100 293.773438 99.289062 C 288.285156 97.988281 283.351562 94.976562 279.921875 90.488281 L 253.847656 56.367188 C 250.511719 51.996094 245.449219 49.496094 239.960938 49.496094 C 234.472656 49.496094 229.410156 52 226.074219 56.367188 L 199.882812 90.640625 C 196.5 95.066406 191.628906 98.023438 186.210938 99.269531 C 183.230469 99.957031 180.46875 101.707031 178.558594 104.453125 C 174.820312 109.820312 175.757812 117.265625 180.707031 121.542969 C 186.253906 126.339844 194.640625 125.503906 199.15625 119.8125 C 201.136719 117.3125 202.042969 114.296875 201.929688 111.335938 C 201.722656 105.765625 203.296875 100.28125 206.679688 95.855469 L 232.867188 61.585938 C 234.570312 59.355469 237.15625 58.074219 239.957031 58.074219 C 242.757812 58.074219 245.34375 59.355469 247.046875 61.585938 L 272.859375 95.371094 C 276.332031 99.914062 278.25 105.515625 277.988281 111.230469 C 277.855469 114.152344 278.707031 117.132812 280.613281 119.632812 C 285.023438 125.40625 293.394531 126.390625 299.027344 121.699219 C 304.078125 117.496094 305.132812 110.019531 301.445312 104.582031 Z M 192.769531 114.015625 C 191.355469 116.355469 188.195312 116.785156 186.210938 114.972656 C 184.816406 113.703125 184.449219 111.210938 185.429688 109.597656 C 186.84375 107.253906 190 106.828125 191.984375 108.636719 C 193.382812 109.910156 193.746094 112.398438 192.769531 114.015625 Z M 293.640625 115.027344 C 291.625 116.800781 288.476562 116.3125 287.105469 113.949219 C 286.15625 112.316406 286.566406 109.832031 287.984375 108.585938 C 290.003906 106.8125 293.148438 107.300781 294.523438 109.664062 C 295.472656 111.296875 295.058594 113.777344 293.640625 115.027344 Z M 293.640625 115.027344 " clip-rule="nonzero"/></clipPath><linearGradient x1="-192.196226" gradientTransform="matrix(0.323848, 0, 0, -0.324556, 235.953312, 298.363965)" y1="538.431902" x2="236.428674" gradientUnits="userSpaceOnUse" y2="709.707774" id="7783eef7fd"><stop stop-opacity="1" stop-color="rgb(49.076843%, 29.359436%, 100%)" offset="0"/><stop stop-opacity="1" stop-color="rgb(49.238586%, 29.414368%, 100%)" offset="0.015625"/><stop stop-opacity="1" stop-color="rgb(49.565125%, 29.524231%, 100%)" offset="0.03125"/><stop stop-opacity="1" stop-color="rgb(49.890137%, 29.634094%, 100%)" offset="0.046875"/><stop stop-opacity="1" stop-color="rgb(50.215149%, 29.743958%, 100%)" offset="0.0625"/><stop stop-opacity="1" stop-color="rgb(50.541687%, 29.853821%, 100%)" offset="0.078125"/><stop stop-opacity="1" stop-color="rgb(50.866699%, 29.963684%, 100%)" offset="0.09375"/><stop stop-opacity="1" stop-color="rgb(51.191711%, 30.073547%, 100%)" offset="0.109375"/><stop stop-opacity="1" stop-color="rgb(51.51825%, 30.183411%, 100%)" offset="0.125"/><stop stop-opacity="1" stop-color="rgb(51.843262%, 30.293274%, 100%)" offset="0.140625"/><stop stop-opacity="1" stop-color="rgb(52.168274%, 30.403137%, 100%)" offset="0.15625"/><stop stop-opacity="1" stop-color="rgb(52.494812%, 30.513%, 100%)" offset="0.171875"/><stop stop-opacity="1" stop-color="rgb(52.819824%, 30.622864%, 100%)" offset="0.1875"/><stop stop-opacity="1" stop-color="rgb(53.144836%, 30.732727%, 100%)" offset="0.190469"/><stop stop-opacity="1" stop-color="rgb(53.308105%, 30.787659%, 100%)" offset="0.203125"/><stop stop-opacity="1" stop-color="rgb(53.471375%, 30.84259%, 100%)" offset="0.21875"/><stop stop-opacity="1" stop-color="rgb(53.796387%, 30.952454%, 100%)" offset="0.234375"/><stop stop-opacity="1" stop-color="rgb(54.121399%, 31.062317%, 100%)" offset="0.25"/><stop stop-opacity="1" stop-color="rgb(54.447937%, 31.17218%, 100%)" offset="0.265625"/><stop stop-opacity="1" stop-color="rgb(54.772949%, 31.282043%, 100%)" offset="0.28125"/><stop stop-opacity="1" stop-color="rgb(55.097961%, 31.391907%, 100%)" offset="0.296875"/><stop stop-opacity="1" stop-color="rgb(55.4245%, 31.50177%, 100%)" offset="0.3125"/><stop stop-opacity="1" stop-color="rgb(55.749512%, 31.611633%, 100%)" offset="0.328125"/><stop stop-opacity="1" stop-color="rgb(56.074524%, 31.721497%, 100%)" offset="0.34375"/><stop stop-opacity="1" stop-color="rgb(56.401062%, 31.83136%, 100%)" offset="0.359375"/><stop stop-opacity="1" stop-color="rgb(56.726074%, 31.941223%, 100%)" offset="0.375"/><stop stop-opacity="1" stop-color="rgb(57.051086%, 32.051086%, 100%)" offset="0.390625"/><stop stop-opacity="1" stop-color="rgb(57.377625%, 32.16095%, 100%)" offset="0.40625"/><stop stop-opacity="1" stop-color="rgb(57.702637%, 32.269287%, 100%)" offset="0.421875"/><stop stop-opacity="1" stop-color="rgb(58.027649%, 32.37915%, 100%)" offset="0.4375"/><stop stop-opacity="1" stop-color="rgb(58.354187%, 32.489014%, 100%)" offset="0.453125"/><stop stop-opacity="1" stop-color="rgb(58.679199%, 32.598877%, 100%)" offset="0.46875"/><stop stop-opacity="1" stop-color="rgb(59.004211%, 32.70874%, 100%)" offset="0.484375"/><stop stop-opacity="1" stop-color="rgb(59.33075%, 32.818604%, 100%)" offset="0.5"/><stop stop-opacity="1" stop-color="rgb(59.655762%, 32.928467%, 100%)" offset="0.515625"/><stop stop-opacity="1" stop-color="rgb(59.980774%, 33.03833%, 100%)" offset="0.53125"/><stop stop-opacity="1" stop-color="rgb(60.307312%, 33.148193%, 100%)" offset="0.546875"/><stop stop-opacity="1" stop-color="rgb(60.632324%, 33.258057%, 100%)" offset="0.5625"/><stop stop-opacity="1" stop-color="rgb(60.957336%, 33.36792%, 100%)" offset="0.578125"/><stop stop-opacity="1" stop-color="rgb(61.283875%, 33.477783%, 100%)" offset="0.59375"/><stop stop-opacity="1" stop-color="rgb(61.608887%, 33.587646%, 100%)" offset="0.609375"/><stop stop-opacity="1" stop-color="rgb(61.933899%, 33.69751%, 100%)" offset="0.625"/><stop stop-opacity="1" stop-color="rgb(62.260437%, 33.807373%, 100%)" offset="0.640625"/><stop stop-opacity="1" stop-color="rgb(62.585449%, 33.917236%, 100%)" offset="0.65625"/><stop stop-opacity="1" stop-color="rgb(62.910461%, 34.0271%, 100%)" offset="0.671875"/><stop stop-opacity="1" stop-color="rgb(63.237%, 34.136963%, 100%)" offset="0.6875"/><stop stop-opacity="1" stop-color="rgb(63.562012%, 34.246826%, 100%)" offset="0.703125"/><stop stop-opacity="1" stop-color="rgb(63.887024%, 34.356689%, 100%)" offset="0.71875"/><stop stop-opacity="1" stop-color="rgb(64.213562%, 34.466553%, 100%)" offset="0.734375"/><stop stop-opacity="1" stop-color="rgb(64.538574%, 34.576416%, 100%)" offset="0.75"/><stop stop-opacity="1" stop-color="rgb(64.863586%, 34.686279%, 100%)" offset="0.765625"/><stop stop-opacity="1" stop-color="rgb(65.190125%, 34.796143%, 100%)" offset="0.78125"/><stop stop-opacity="1" stop-color="rgb(65.515137%, 34.906006%, 100%)" offset="0.796875"/><stop stop-opacity="1" stop-color="rgb(65.840149%, 35.015869%, 100%)" offset="0.809531"/><stop stop-opacity="1" stop-color="rgb(66.003418%, 35.070801%, 100%)" offset="0.8125"/><stop stop-opacity="1" stop-color="rgb(66.166687%, 35.125732%, 100%)" offset="0.828125"/><stop stop-opacity="1" stop-color="rgb(66.491699%, 35.23407%, 100%)" offset="0.84375"/><stop stop-opacity="1" stop-color="rgb(66.816711%, 35.343933%, 100%)" offset="0.859375"/><stop stop-opacity="1" stop-color="rgb(67.14325%, 35.453796%, 100%)" offset="0.875"/><stop stop-opacity="1" stop-color="rgb(67.468262%, 35.56366%, 100%)" offset="0.890625"/><stop stop-opacity="1" stop-color="rgb(67.735291%, 35.653687%, 100%)" offset="0.90625"/><stop stop-opacity="1" stop-color="rgb(67.83905%, 35.688782%, 100%)" offset="0.9375"/><stop stop-opacity="1" stop-color="rgb(67.83905%, 35.688782%, 100%)" offset="1"/></linearGradient><clipPath id="c31683dec1"><path d="M 102 21 L 240 21 L 240 125 L 102 125 Z M 102 21 " clip-rule="nonzero"/></clipPath><clipPath id="88b4bbfaa7"><path d="M 189.613281 40.730469 L 199.445312 53.597656 C 201.417969 56.175781 201.417969 59.761719 199.445312 62.335938 L 185.285156 80.863281 C 183.847656 82.746094 184.203125 85.4375 186.082031 86.875 C 187.960938 88.316406 190.644531 87.960938 192.082031 86.078125 L 215.042969 56.027344 C 218.527344 51.472656 223.433594 48.148438 229.019531 46.902344 C 231.972656 46.246094 234.714844 44.546875 236.648438 41.859375 C 240.445312 36.582031 239.65625 29.175781 234.839844 24.808594 C 229.40625 19.882812 220.996094 20.519531 216.347656 26.105469 C 214.273438 28.605469 213.300781 31.664062 213.382812 34.683594 C 213.535156 40.414062 211.886719 46.042969 208.410156 50.59375 L 208.167969 50.90625 L 196.402344 35.507812 C 193.066406 31.140625 188.007812 28.636719 182.515625 28.636719 C 177.027344 28.636719 171.964844 31.144531 168.628906 35.507812 L 126.726562 90.34375 C 123.253906 94.890625 118.261719 97.960938 112.703125 99.300781 C 109.667969 100.03125 106.882812 101.867188 105.003906 104.703125 C 101.359375 110.214844 102.535156 117.714844 107.6875 121.847656 C 113.40625 126.429688 121.753906 125.292969 126.058594 119.441406 C 127.875 116.964844 128.675781 114.054688 128.539062 111.203125 C 128.273438 105.566406 130.101562 100.035156 133.523438 95.558594 L 175.425781 40.726562 C 177.132812 38.5 179.714844 37.21875 182.515625 37.21875 C 185.316406 37.21875 187.902344 38.5 189.605469 40.726562 Z M 222.601562 32.058594 C 224.074219 29.753906 227.238281 29.398438 229.179688 31.253906 C 230.542969 32.558594 230.855469 35.054688 229.835938 36.648438 C 228.367188 38.953125 225.203125 39.308594 223.261719 37.453125 C 221.898438 36.148438 221.585938 33.652344 222.601562 32.058594 Z M 119.472656 113.878906 C 118.140625 116.269531 115.003906 116.8125 112.953125 115.078125 C 111.511719 113.855469 111.054688 111.382812 111.976562 109.730469 C 113.308594 107.34375 116.445312 106.796875 118.496094 108.535156 C 119.9375 109.753906 120.394531 112.226562 119.472656 113.878906 Z M 119.472656 113.878906 " clip-rule="nonzero"/></clipPath><linearGradient x1="-448.344524" gradientTransform="matrix(0.323848, 0, 0, -0.324556, 235.953312, 298.363965)" y1="611.683848" x2="35.121082" gradientUnits="userSpaceOnUse" y2="804.869415" id="d9edd48ac2"><stop stop-opacity="1" stop-color="rgb(39.567566%, 26.152039%, 100%)" offset="0"/><stop stop-opacity="1" stop-color="rgb(39.750671%, 26.213074%, 100%)" offset="0.015625"/><stop stop-opacity="1" stop-color="rgb(40.118408%, 26.338196%, 100%)" offset="0.03125"/><stop stop-opacity="1" stop-color="rgb(40.484619%, 26.461792%, 100%)" offset="0.046875"/><stop stop-opacity="1" stop-color="rgb(40.852356%, 26.585388%, 100%)" offset="0.0625"/><stop stop-opacity="1" stop-color="rgb(41.218567%, 26.708984%, 100%)" offset="0.078125"/><stop stop-opacity="1" stop-color="rgb(41.586304%, 26.832581%, 100%)" offset="0.09375"/><stop stop-opacity="1" stop-color="rgb(41.954041%, 26.956177%, 100%)" offset="0.109375"/><stop stop-opacity="1" stop-color="rgb(42.320251%, 27.081299%, 100%)" offset="0.125"/><stop stop-opacity="1" stop-color="rgb(42.687988%, 27.204895%, 100%)" offset="0.140625"/><stop stop-opacity="1" stop-color="rgb(43.055725%, 27.328491%, 100%)" offset="0.15625"/><stop stop-opacity="1" stop-color="rgb(43.421936%, 27.452087%, 100%)" offset="0.171875"/><stop stop-opacity="1" stop-color="rgb(43.789673%, 27.575684%, 100%)" offset="0.1875"/><stop stop-opacity="1" stop-color="rgb(44.15741%, 27.69928%, 100%)" offset="0.203125"/><stop stop-opacity="1" stop-color="rgb(44.523621%, 27.824402%, 100%)" offset="0.21875"/><stop stop-opacity="1" stop-color="rgb(44.891357%, 27.947998%, 100%)" offset="0.233974"/><stop stop-opacity="1" stop-color="rgb(45.074463%, 28.010559%, 100%)" offset="0.234375"/><stop stop-opacity="1" stop-color="rgb(45.257568%, 28.071594%, 100%)" offset="0.25"/><stop stop-opacity="1" stop-color="rgb(45.625305%, 28.19519%, 100%)" offset="0.265625"/><stop stop-opacity="1" stop-color="rgb(45.993042%, 28.318787%, 100%)" offset="0.28125"/><stop stop-opacity="1" stop-color="rgb(46.359253%, 28.443909%, 100%)" offset="0.296875"/><stop stop-opacity="1" stop-color="rgb(46.72699%, 28.567505%, 100%)" offset="0.3125"/><stop stop-opacity="1" stop-color="rgb(47.094727%, 28.691101%, 100%)" offset="0.328125"/><stop stop-opacity="1" stop-color="rgb(47.460938%, 28.814697%, 100%)" offset="0.34375"/><stop stop-opacity="1" stop-color="rgb(47.828674%, 28.938293%, 100%)" offset="0.359375"/><stop stop-opacity="1" stop-color="rgb(48.194885%, 29.06189%, 100%)" offset="0.375"/><stop stop-opacity="1" stop-color="rgb(48.562622%, 29.187012%, 100%)" offset="0.390625"/><stop stop-opacity="1" stop-color="rgb(48.930359%, 29.310608%, 100%)" offset="0.40625"/><stop stop-opacity="1" stop-color="rgb(49.29657%, 29.434204%, 100%)" offset="0.421875"/><stop stop-opacity="1" stop-color="rgb(49.664307%, 29.5578%, 100%)" offset="0.4375"/><stop stop-opacity="1" stop-color="rgb(50.032043%, 29.681396%, 100%)" offset="0.453125"/><stop stop-opacity="1" stop-color="rgb(50.398254%, 29.804993%, 100%)" offset="0.46875"/><stop stop-opacity="1" stop-color="rgb(50.765991%, 29.930115%, 100%)" offset="0.484375"/><stop stop-opacity="1" stop-color="rgb(51.133728%, 30.053711%, 100%)" offset="0.5"/><stop stop-opacity="1" stop-color="rgb(51.499939%, 30.177307%, 100%)" offset="0.515625"/><stop stop-opacity="1" stop-color="rgb(51.867676%, 30.300903%, 100%)" offset="0.53125"/><stop stop-opacity="1" stop-color="rgb(52.233887%, 30.4245%, 100%)" offset="0.546875"/><stop stop-opacity="1" stop-color="rgb(52.601624%, 30.548096%, 100%)" offset="0.5625"/><stop stop-opacity="1" stop-color="rgb(52.96936%, 30.673218%, 100%)" offset="0.578125"/><stop stop-opacity="1" stop-color="rgb(53.335571%, 30.796814%, 100%)" offset="0.59375"/><stop stop-opacity="1" stop-color="rgb(53.703308%, 30.92041%, 100%)" offset="0.609375"/><stop stop-opacity="1" stop-color="rgb(54.071045%, 31.044006%, 100%)" offset="0.625"/><stop stop-opacity="1" stop-color="rgb(54.437256%, 31.167603%, 100%)" offset="0.640625"/><stop stop-opacity="1" stop-color="rgb(54.804993%, 31.291199%, 100%)" offset="0.65625"/><stop stop-opacity="1" stop-color="rgb(55.172729%, 31.416321%, 100%)" offset="0.671875"/><stop stop-opacity="1" stop-color="rgb(55.53894%, 31.539917%, 100%)" offset="0.6875"/><stop stop-opacity="1" stop-color="rgb(55.906677%, 31.663513%, 100%)" offset="0.703125"/><stop stop-opacity="1" stop-color="rgb(56.272888%, 31.787109%, 100%)" offset="0.71875"/><stop stop-opacity="1" stop-color="rgb(56.640625%, 31.910706%, 100%)" offset="0.734375"/><stop stop-opacity="1" stop-color="rgb(57.008362%, 32.034302%, 100%)" offset="0.75"/><stop stop-opacity="1" stop-color="rgb(57.374573%, 32.159424%, 100%)" offset="0.765625"/><stop stop-opacity="1" stop-color="rgb(57.74231%, 32.28302%, 100%)" offset="0.766026"/><stop stop-opacity="1" stop-color="rgb(57.926941%, 32.345581%, 100%)" offset="0.78125"/><stop stop-opacity="1" stop-color="rgb(58.110046%, 32.406616%, 100%)" offset="0.796875"/><stop stop-opacity="1" stop-color="rgb(58.476257%, 32.530212%, 100%)" offset="0.8125"/><stop stop-opacity="1" stop-color="rgb(58.843994%, 32.653809%, 100%)" offset="0.828125"/><stop stop-opacity="1" stop-color="rgb(59.210205%, 32.778931%, 100%)" offset="0.84375"/><stop stop-opacity="1" stop-color="rgb(59.577942%, 32.902527%, 100%)" offset="0.859375"/><stop stop-opacity="1" stop-color="rgb(59.945679%, 33.026123%, 100%)" offset="0.875"/><stop stop-opacity="1" stop-color="rgb(60.31189%, 33.149719%, 100%)" offset="0.890625"/><stop stop-opacity="1" stop-color="rgb(60.679626%, 33.273315%, 100%)" offset="0.90625"/><stop stop-opacity="1" stop-color="rgb(61.047363%, 33.396912%, 100%)" offset="0.921875"/><stop stop-opacity="1" stop-color="rgb(61.413574%, 33.522034%, 100%)" offset="0.9375"/><stop stop-opacity="1" stop-color="rgb(61.781311%, 33.64563%, 100%)" offset="0.953125"/><stop stop-opacity="1" stop-color="rgb(62.149048%, 33.769226%, 100%)" offset="0.96875"/><stop stop-opacity="1" stop-color="rgb(62.515259%, 33.892822%, 100%)" offset="0.984375"/><stop stop-opacity="1" stop-color="rgb(62.882996%, 34.016418%, 100%)" offset="1"/></linearGradient><clipPath id="9be78952b0"><path d="M 61 1 L 183 1 L 183 125 L 61 125 Z M 61 1 " clip-rule="nonzero"/></clipPath><clipPath id="dc0d239773"><path d="M 117.992188 61.585938 C 119.695312 59.355469 122.28125 58.074219 125.082031 58.074219 C 126.796875 58.074219 128.425781 58.554688 129.824219 59.4375 L 113.445312 80.863281 C 112.007812 82.746094 112.363281 85.4375 114.242188 86.875 C 116.121094 88.316406 118.804688 87.960938 120.242188 86.078125 L 158.417969 36.121094 C 161.894531 31.574219 166.886719 28.503906 172.445312 27.164062 C 175.480469 26.433594 178.265625 24.597656 180.140625 21.761719 C 183.78125 16.25 182.605469 8.75 177.457031 4.617188 C 171.742188 0.03125 163.394531 1.171875 159.089844 7.023438 C 157.269531 9.496094 156.46875 12.410156 156.605469 15.261719 C 156.875 20.894531 155.042969 26.429688 151.621094 30.902344 L 135.039062 52.601562 C 132.160156 50.589844 128.710938 49.488281 125.078125 49.488281 C 119.589844 49.488281 114.527344 51.992188 111.191406 56.359375 L 85.226562 90.339844 C 81.75 94.882812 76.765625 97.960938 71.214844 99.292969 C 68.03125 100.058594 65.117188 102.035156 63.242188 105.113281 C 59.988281 110.453125 61.097656 117.476562 65.835938 121.550781 C 71.5625 126.480469 80.179688 125.40625 84.570312 119.421875 C 86.375 116.957031 87.171875 114.058594 87.042969 111.21875 C 86.78125 105.578125 88.601562 100.039062 92.027344 95.554688 L 117.992188 61.578125 Z M 165.683594 12.59375 C 167.015625 10.203125 170.152344 9.660156 172.203125 11.394531 C 173.644531 12.613281 174.101562 15.089844 173.179688 16.742188 C 171.847656 19.128906 168.710938 19.675781 166.660156 17.9375 C 165.21875 16.71875 164.761719 14.242188 165.683594 12.59375 Z M 77.972656 113.875 C 76.648438 116.265625 73.507812 116.8125 71.457031 115.082031 C 70.015625 113.863281 69.550781 111.386719 70.46875 109.734375 C 71.792969 107.34375 74.929688 106.792969 76.984375 108.527344 C 78.425781 109.746094 78.886719 112.222656 77.972656 113.875 Z M 77.972656 113.875 " clip-rule="nonzero"/></clipPath><linearGradient x1="-584.216025" gradientTransform="matrix(0.323848, 0, 0, -0.324556, 235.953312, 298.363965)" y1="631.856415" x2="-120.343269" gradientUnits="userSpaceOnUse" y2="817.2171" id="12c0dd0522"><stop stop-opacity="1" stop-color="rgb(35.289001%, 24.708557%, 100%)" offset="0"/><stop stop-opacity="1" stop-color="rgb(35.453796%, 24.765015%, 100%)" offset="0.0625"/><stop stop-opacity="1" stop-color="rgb(35.795593%, 24.879456%, 100%)" offset="0.078125"/><stop stop-opacity="1" stop-color="rgb(36.148071%, 24.998474%, 100%)" offset="0.09375"/><stop stop-opacity="1" stop-color="rgb(36.500549%, 25.117493%, 100%)" offset="0.109375"/><stop stop-opacity="1" stop-color="rgb(36.851501%, 25.236511%, 100%)" offset="0.125"/><stop stop-opacity="1" stop-color="rgb(37.203979%, 25.35553%, 100%)" offset="0.140625"/><stop stop-opacity="1" stop-color="rgb(37.556458%, 25.474548%, 100%)" offset="0.15625"/><stop stop-opacity="1" stop-color="rgb(37.908936%, 25.593567%, 100%)" offset="0.171875"/><stop stop-opacity="1" stop-color="rgb(38.261414%, 25.712585%, 100%)" offset="0.1875"/><stop stop-opacity="1" stop-color="rgb(38.613892%, 25.830078%, 100%)" offset="0.203125"/><stop stop-opacity="1" stop-color="rgb(38.96637%, 25.949097%, 100%)" offset="0.21875"/><stop stop-opacity="1" stop-color="rgb(39.318848%, 26.068115%, 100%)" offset="0.234375"/><stop stop-opacity="1" stop-color="rgb(39.671326%, 26.187134%, 100%)" offset="0.25"/><stop stop-opacity="1" stop-color="rgb(40.022278%, 26.306152%, 100%)" offset="0.265625"/><stop stop-opacity="1" stop-color="rgb(40.374756%, 26.425171%, 100%)" offset="0.28125"/><stop stop-opacity="1" stop-color="rgb(40.727234%, 26.544189%, 100%)" offset="0.289403"/><stop stop-opacity="1" stop-color="rgb(40.904236%, 26.603699%, 100%)" offset="0.296875"/><stop stop-opacity="1" stop-color="rgb(41.079712%, 26.663208%, 100%)" offset="0.3125"/><stop stop-opacity="1" stop-color="rgb(41.43219%, 26.782227%, 100%)" offset="0.328125"/><stop stop-opacity="1" stop-color="rgb(41.784668%, 26.899719%, 100%)" offset="0.34375"/><stop stop-opacity="1" stop-color="rgb(42.137146%, 27.018738%, 100%)" offset="0.359375"/><stop stop-opacity="1" stop-color="rgb(42.489624%, 27.137756%, 100%)" offset="0.375"/><stop stop-opacity="1" stop-color="rgb(42.840576%, 27.256775%, 100%)" offset="0.390625"/><stop stop-opacity="1" stop-color="rgb(43.193054%, 27.375793%, 100%)" offset="0.40625"/><stop stop-opacity="1" stop-color="rgb(43.545532%, 27.494812%, 100%)" offset="0.421875"/><stop stop-opacity="1" stop-color="rgb(43.89801%, 27.613831%, 100%)" offset="0.4375"/><stop stop-opacity="1" stop-color="rgb(44.250488%, 27.732849%, 100%)" offset="0.453125"/><stop stop-opacity="1" stop-color="rgb(44.602966%, 27.850342%, 100%)" offset="0.46875"/><stop stop-opacity="1" stop-color="rgb(44.955444%, 27.96936%, 100%)" offset="0.484375"/><stop stop-opacity="1" stop-color="rgb(45.307922%, 28.088379%, 100%)" offset="0.5"/><stop stop-opacity="1" stop-color="rgb(45.658875%, 28.207397%, 100%)" offset="0.515625"/><stop stop-opacity="1" stop-color="rgb(46.011353%, 28.326416%, 100%)" offset="0.53125"/><stop stop-opacity="1" stop-color="rgb(46.363831%, 28.445435%, 100%)" offset="0.546875"/><stop stop-opacity="1" stop-color="rgb(46.716309%, 28.564453%, 100%)" offset="0.5625"/><stop stop-opacity="1" stop-color="rgb(47.068787%, 28.683472%, 100%)" offset="0.578125"/><stop stop-opacity="1" stop-color="rgb(47.421265%, 28.80249%, 100%)" offset="0.59375"/><stop stop-opacity="1" stop-color="rgb(47.773743%, 28.919983%, 100%)" offset="0.609375"/><stop stop-opacity="1" stop-color="rgb(48.126221%, 29.039001%, 100%)" offset="0.625"/><stop stop-opacity="1" stop-color="rgb(48.477173%, 29.15802%, 100%)" offset="0.640625"/><stop stop-opacity="1" stop-color="rgb(48.829651%, 29.277039%, 100%)" offset="0.65625"/><stop stop-opacity="1" stop-color="rgb(49.182129%, 29.396057%, 100%)" offset="0.671875"/><stop stop-opacity="1" stop-color="rgb(49.534607%, 29.515076%, 100%)" offset="0.6875"/><stop stop-opacity="1" stop-color="rgb(49.887085%, 29.634094%, 100%)" offset="0.703125"/><stop stop-opacity="1" stop-color="rgb(50.239563%, 29.753113%, 100%)" offset="0.710597"/><stop stop-opacity="1" stop-color="rgb(50.416565%, 29.812622%, 100%)" offset="0.71875"/><stop stop-opacity="1" stop-color="rgb(50.592041%, 29.870605%, 100%)" offset="0.734375"/><stop stop-opacity="1" stop-color="rgb(50.944519%, 29.989624%, 100%)" offset="0.75"/><stop stop-opacity="1" stop-color="rgb(51.295471%, 30.108643%, 100%)" offset="0.765625"/><stop stop-opacity="1" stop-color="rgb(51.647949%, 30.227661%, 100%)" offset="0.78125"/><stop stop-opacity="1" stop-color="rgb(52.000427%, 30.34668%, 100%)" offset="0.796875"/><stop stop-opacity="1" stop-color="rgb(52.352905%, 30.465698%, 100%)" offset="0.8125"/><stop stop-opacity="1" stop-color="rgb(52.705383%, 30.584717%, 100%)" offset="0.828125"/><stop stop-opacity="1" stop-color="rgb(53.057861%, 30.703735%, 100%)" offset="0.84375"/><stop stop-opacity="1" stop-color="rgb(53.410339%, 30.821228%, 100%)" offset="0.859375"/><stop stop-opacity="1" stop-color="rgb(53.762817%, 30.940247%, 100%)" offset="0.875"/><stop stop-opacity="1" stop-color="rgb(54.115295%, 31.059265%, 100%)" offset="0.890625"/><stop stop-opacity="1" stop-color="rgb(54.466248%, 31.178284%, 100%)" offset="0.90625"/><stop stop-opacity="1" stop-color="rgb(54.818726%, 31.297302%, 100%)" offset="0.921875"/><stop stop-opacity="1" stop-color="rgb(55.171204%, 31.416321%, 100%)" offset="0.9375"/><stop stop-opacity="1" stop-color="rgb(55.523682%, 31.535339%, 100%)" offset="0.953125"/><stop stop-opacity="1" stop-color="rgb(55.87616%, 31.654358%, 100%)" offset="0.96875"/><stop stop-opacity="1" stop-color="rgb(56.228638%, 31.773376%, 100%)" offset="0.984375"/><stop stop-opacity="1" stop-color="rgb(56.581116%, 31.890869%, 100%)" offset="1"/></linearGradient><clipPath id="1b09551ac7"><rect x="0" width="370" y="0" height="214"/></clipPath></defs><g clip-path="url(#4e645dafd2)"><g transform="matrix(1, 0, 0, 1, 5, 0.00000000000000392)"><g clip-path="url(#1b09551ac7)"><g fill="#131b2b" fill-opacity="1"><g transform="translate(1.007368, 197.47674)"><g><path d="M 30.609375 -20.75 L 39.40625 0 L 31.46875 0 L 23.546875 -19.453125 L 11.828125 -19.453125 L 11.828125 0 L 4.515625 0 L 4.515625 -47.265625 L 23.546875 -47.265625 C 26.515625 -47.265625 29.125 -46.78125 31.375 -45.8125 C 33.625 -44.84375 35.378906 -43.34375 36.640625 -41.3125 C 37.898438 -39.289062 38.53125 -36.691406 38.53125 -33.515625 C 38.53125 -30.378906 37.816406 -27.722656 36.390625 -25.546875 C 34.972656 -23.378906 33.046875 -21.78125 30.609375 -20.75 Z M 11.828125 -40.703125 L 11.828125 -25.828125 L 22.546875 -25.828125 C 25.359375 -25.828125 27.515625 -26.476562 29.015625 -27.78125 C 30.523438 -29.082031 31.28125 -30.929688 31.28125 -33.328125 C 31.28125 -35.679688 30.523438 -37.5 29.015625 -38.78125 C 27.515625 -40.0625 25.359375 -40.703125 22.546875 -40.703125 Z M 11.828125 -40.703125 "/></g></g></g><g fill="#131b2b" fill-opacity="1"><g transform="translate(51.433672, 197.47674)"><g><path d="M 35.625 0 L 4.515625 0 L 4.515625 -47.265625 L 35.625 -47.265625 L 35.625 -40.703125 L 11.828125 -40.703125 L 11.828125 -26.953125 L 32.953125 -26.953125 L 32.953125 -20.4375 L 11.828125 -20.4375 L 11.828125 -6.5625 L 35.625 -6.5625 Z M 35.625 0 "/></g></g></g><g fill="#131b2b" fill-opacity="1"><g transform="translate(98.390941, 197.47674)"><g><path d="M 11.828125 0 L 4.515625 0 L 4.515625 -47.265625 L 17.03125 -47.265625 L 28.25 -8.921875 L 39.53125 -47.265625 L 52.046875 -47.265625 L 52.046875 0 L 44.734375 0 L 44.734375 -42.25 L 31.90625 0 L 24.71875 0 L 11.828125 -41.9375 Z M 11.828125 0 "/></g></g></g><g fill="#131b2b" fill-opacity="1"><g transform="translate(163.684581, 197.47674)"><g><path d="M 35.625 0 L 4.515625 0 L 4.515625 -47.265625 L 35.625 -47.265625 L 35.625 -40.703125 L 11.828125 -40.703125 L 11.828125 -26.953125 L 32.953125 -26.953125 L 32.953125 -20.4375 L 11.828125 -20.4375 L 11.828125 -6.5625 L 35.625 -6.5625 Z M 35.625 0 "/></g></g></g><g fill="#131b2b" fill-opacity="1"><g transform="translate(210.64185, 197.47674)"><g><path d="M 17.90625 0 L 4.515625 0 L 4.515625 -47.265625 L 17.96875 -47.265625 C 25.851562 -47.265625 31.898438 -45.207031 36.109375 -41.09375 C 40.328125 -36.988281 42.4375 -31.140625 42.4375 -23.546875 C 42.4375 -16.023438 40.328125 -10.21875 36.109375 -6.125 C 31.898438 -2.039062 25.832031 0 17.90625 0 Z M 11.828125 -40.703125 L 11.828125 -6.5625 L 17.84375 -6.5625 C 20.28125 -6.5625 22.539062 -6.828125 24.625 -7.359375 C 26.707031 -7.898438 28.535156 -8.800781 30.109375 -10.0625 C 31.679688 -11.320312 32.910156 -13.046875 33.796875 -15.234375 C 34.679688 -17.429688 35.125 -20.203125 35.125 -23.546875 C 35.125 -27.671875 34.398438 -30.992188 32.953125 -33.515625 C 31.515625 -36.035156 29.492188 -37.863281 26.890625 -39 C 24.285156 -40.132812 21.269531 -40.703125 17.84375 -40.703125 Z M 11.828125 -40.703125 "/></g></g></g><g fill="#131b2b" fill-opacity="1"><g transform="translate(264.53721, 197.47674)"><g><path d="M 11.828125 0 L 4.515625 0 L 4.515625 -47.265625 L 11.828125 -47.265625 Z M 11.828125 0 "/></g></g></g><g fill="#131b2b" fill-opacity="1"><g transform="translate(289.689053, 197.47674)"><g><path d="M 20.4375 -17.46875 L 1.546875 -17.46875 L 1.546875 -23.359375 L 20.4375 -23.359375 Z M 20.4375 -17.46875 "/></g></g></g><g fill="#9147ff" fill-opacity="1"><g transform="translate(320.361486, 197.47674)"><g><path d="M 9.421875 0 L 0.75 0 L 16.796875 -23.671875 L 0.921875 -47.265625 L 9.671875 -47.265625 L 21.8125 -28.75 L 33.953125 -47.265625 L 42.6875 -47.265625 L 26.765625 -23.671875 L 42.8125 0 L 34.140625 0 L 21.8125 -18.15625 Z M 9.421875 0 "/></g></g></g><g clip-path="url(#87e3bdc374)"><g clip-path="url(#0a1b309a18)"><path fill="url(#7783eef7fd)" d="M 174.820312 126.390625 L 174.820312 49.496094 L 305.132812 49.496094 L 305.132812 126.390625 Z M 174.820312 126.390625 " fill-rule="nonzero"/></g></g><g clip-path="url(#c31683dec1)"><g clip-path="url(#88b4bbfaa7)"><path fill="url(#d9edd48ac2)" d="M 101.359375 126.429688 L 101.359375 19.882812 L 240.445312 19.882812 L 240.445312 126.429688 Z M 101.359375 126.429688 " fill-rule="nonzero"/></g></g><g clip-path="url(#9be78952b0)"><g clip-path="url(#dc0d239773)"><path fill="url(#12c0dd0522)" d="M 59.988281 126.480469 L 59.988281 0.03125 L 183.78125 0.03125 L 183.78125 126.480469 Z M 59.988281 126.480469 " fill-rule="nonzero"/></g></g></g></g></g></svg>